<svg width="1440" height="1360" viewBox="0 0 1440 1360" fill="none" xmlns="http://www.w3.org/2000/svg">
<g opacity="0.4" filter="url(#filter0_f_1_461)">
<path fill-rule="evenodd" clip-rule="evenodd" d="M377.092 -286.366C377.075 -286.35 377.058 -286.333 377.041 -286.317C255.638 -403.292 133.098 -494.651 16.699 -557.288C-134.406 -638.555 -275.233 -671.337 -390.085 -648.766C-464.819 -634.077 -528.545 -595.921 -576.942 -532.388C-626.977 -466.705 -656.452 -379.168 -666.732 -276.465C-667.733 -491.844 -619.472 -679.935 -516.992 -814.465C-321.401 -1071.22 23.2944 -1068.72 377.041 -852.322C505.421 -772.728 626.3 -673.769 737.231 -557.447C737.25 -557.457 737.269 -557.468 737.288 -557.478C788.839 -503.857 839.465 -445.758 889.166 -383.18L904.496 -363.714L918.142 -345.801L931.787 -327.887C935.737 -322.702 940.27 -316.527 944.611 -310.613C945.27 -309.716 945.924 -308.825 946.571 -307.944C1018.22 -210.508 1084.15 -106.093 1143.8 4.40735C1203.94 115.352 1256.57 232.995 1301.09 355.989C1303 361.363 1304.91 366.736 1306.78 372.11C1468.89 833.859 1469.8 1282.65 1275.16 1538.16C1142.89 1711.8 942.568 1766.85 717.366 1717.29C854.279 1736.76 969.86 1699.91 1046.78 1598.94C1090.49 1541.56 1118.46 1467.58 1131.65 1381.71C1154.81 1231.24 1133.06 1043.39 1072.11 840.547L1071.43 838.219C1036.64 724.934 994.277 615.913 944.843 512.432C864.241 341.956 760.395 169.45 636.218 6.43732C555.622 -99.6472 468.997 -197.53 377.092 -286.366Z" fill="url(#paint0_linear_1_461)"/>
<g filter="url(#filter1_i_1_461)">
<path fill-rule="evenodd" clip-rule="evenodd" d="M113.85 1368.03C207.172 1326.53 296.862 1272.11 381.4 1205.67L379.217 1203.7C248.9 1101.15 128.83 977.666 21.7857 836.116C-54.5736 736.18 -124.257 627.824 -186.496 512.24C-186.634 511.98 -186.773 511.718 -186.913 511.455C-187.513 510.327 -188.126 509.174 -188.679 508.061C-278.287 340.272 -344.424 168.422 -385.362 4.09576C-385.817 2.30438 -386.226 0.572693 -386.636 -1.21863C-446.996 -247.767 -449.497 -476.94 -385.816 -649.148L-390.365 -648.193C-390.278 -648.522 -390.172 -648.841 -390.047 -649.148C-464.781 -634.28 -528.506 -596.304 -576.904 -532.771C-627.03 -466.968 -656.414 -379.55 -666.694 -276.846C-666.633 -261.839 -666.33 -246.692 -665.784 -231.406C-673.335 -60.3923 -632.806 147.403 -550.522 366.067C-549.839 368.216 -549.112 370.127 -548.384 372.038C-500.299 497.222 -443.986 616.66 -380.085 728.994C-360.131 765.696 -339.193 802.12 -317.269 838.266C-286.763 888.623 -254.407 938.162 -220.201 986.887L-219.337 988.141C-200.081 1015.53 -180.264 1042.6 -159.886 1069.35C-94.4989 1155.35 -24.8101 1235.52 48.7144 1309.33L49.6694 1310.29C69.562 1330.19 89.5605 1349.44 109.665 1368.03L111.712 1367.13L113.077 1368.38L113.85 1368.03ZM1046.77 1599.13C1090.48 1541.75 1118.45 1467.95 1131.64 1381.9C1000.01 1456 828.798 1448.18 645.352 1368.41L644.579 1368.05C560.103 1446.61 470.582 1515.38 377.028 1573.58L372.161 1576.5L377.028 1579.61C497.658 1655.68 613.648 1702.73 717.357 1717.48C854.27 1736.95 969.851 1700.1 1046.77 1599.13Z" fill="#5DFDB0"/>
</g>
<g filter="url(#filter2_i_1_461)">
<path fill-rule="evenodd" clip-rule="evenodd" d="M1301.01 356.052C1302.92 361.426 1304.83 366.8 1306.69 372.174C1397.89 131.895 1438.88 -96.0242 1420.82 -276.472C1410.54 -379.176 1381.06 -466.713 1331.03 -532.396C1282.63 -595.929 1218.9 -634.084 1144.17 -648.773C1208.26 -475.312 1205.3 -244.108 1143.72 4.47058C1203.86 115.415 1256.49 233.058 1301.01 356.052ZM974.368 987.015C1008.79 938.768 1041.37 890.003 1072.12 840.721L1071.53 838.632C1036.73 725.348 994.372 616.327 944.938 512.846C882.698 628.43 813.016 736.786 736.657 836.721C629.612 978.272 509.543 1101.75 379.225 1204.31L377.133 1205.92C293.203 1271.78 204.208 1325.82 111.629 1367.14L109.583 1368.03L108.81 1368.39C-74.6364 1448.17 -246.029 1455.99 -377.485 1381.89C-364.294 1467.75 -336.319 1541.73 -292.607 1599.12C-215.689 1700.09 -100.109 1736.93 36.8046 1717.47C140.604 1702.72 256.504 1655.66 377.133 1579.59L381.999 1576.49C474.184 1517.12 562.326 1447.51 645.457 1368.39C665.167 1349.56 684.878 1330.2 704.589 1310.29L705.544 1309.34C779.034 1235.56 848.692 1155.43 914.053 1069.48C934.431 1042.69 954.247 1015.62 973.503 988.268L974.368 987.015Z" fill="url(#paint1_linear_1_461)"/>
</g>
</g>
<defs>
<filter id="filter0_f_1_461" x="-716.747" y="-1061.07" width="2191.75" height="2845.79" filterUnits="userSpaceOnUse" color-interpolation-filters="sRGB">
<feFlood flood-opacity="0" result="BackgroundImageFix"/>
<feBlend mode="normal" in="SourceGraphic" in2="BackgroundImageFix" result="shape"/>
<feGaussianBlur stdDeviation="25" result="effect1_foregroundBlur_1_461"/>
</filter>
<filter id="filter1_i_1_461" x="-666.694" y="-649.148" width="1798.34" height="2388.3" filterUnits="userSpaceOnUse" color-interpolation-filters="sRGB">
<feFlood flood-opacity="0" result="BackgroundImageFix"/>
<feBlend mode="normal" in="SourceGraphic" in2="BackgroundImageFix" result="shape"/>
<feColorMatrix in="SourceAlpha" type="matrix" values="0 0 0 0 0 0 0 0 0 0 0 0 0 0 0 0 0 0 127 0" result="hardAlpha"/>
<feOffset dy="16.6628"/>
<feGaussianBlur stdDeviation="41.657"/>
<feComposite in2="hardAlpha" operator="arithmetic" k2="-1" k3="1"/>
<feColorMatrix type="matrix" values="0 0 0 0 0 0 0 0 0 0 0 0 0 0 0 0 0 0 0.15 0"/>
<feBlend mode="normal" in2="shape" result="effect1_innerShadow_1_461"/>
</filter>
<filter id="filter2_i_1_461" x="-377.485" y="-648.773" width="1802.48" height="2387.91" filterUnits="userSpaceOnUse" color-interpolation-filters="sRGB">
<feFlood flood-opacity="0" result="BackgroundImageFix"/>
<feBlend mode="normal" in="SourceGraphic" in2="BackgroundImageFix" result="shape"/>
<feColorMatrix in="SourceAlpha" type="matrix" values="0 0 0 0 0 0 0 0 0 0 0 0 0 0 0 0 0 0 127 0" result="hardAlpha"/>
<feOffset dy="16.6628"/>
<feGaussianBlur stdDeviation="41.657"/>
<feComposite in2="hardAlpha" operator="arithmetic" k2="-1" k3="1"/>
<feColorMatrix type="matrix" values="0 0 0 0 0 0 0 0 0 0 0 0 0 0 0 0 0 0 0.15 0"/>
<feBlend mode="normal" in2="shape" result="effect1_innerShadow_1_461"/>
</filter>
<linearGradient id="paint0_linear_1_461" x1="-666.747" y1="1734.72" x2="-2517.7" y2="-2481.8" gradientUnits="userSpaceOnUse">
<stop stop-color="#149EE3"/>
<stop offset="1" stop-color="#5DFDB0"/>
</linearGradient>
<linearGradient id="paint1_linear_1_461" x1="924.842" y1="498.673" x2="765.133" y2="938.346" gradientUnits="userSpaceOnUse">
<stop stop-color="#5DFDB0"/>
<stop offset="1" stop-color="#5DFDF3"/>
</linearGradient>
</defs>
</svg>
