<svg width="646" height="203" viewBox="0 0 646 203" fill="none" xmlns="http://www.w3.org/2000/svg">
<g filter="url(#filter0_b_12_191)">
<path d="M0 10.5703C0 5.04746 4.47715 0.570312 10 0.570312H636C641.523 0.570312 646 5.04747 646 10.5703V192.57C646 198.093 641.523 202.57 636 202.57H9.99999C4.47714 202.57 0 198.093 0 192.57V10.5703Z" fill="#23284B" fill-opacity="0.75"/>
<path d="M10 1.07031H636C641.247 1.07031 645.5 5.32361 645.5 10.5703V192.57C645.5 197.817 641.247 202.07 636 202.07H9.99999C4.75329 202.07 0.5 197.817 0.5 192.57V10.5703C0.5 5.32361 4.75329 1.07031 10 1.07031Z" stroke="#728CDF"/>
</g>
<defs>
<filter id="filter0_b_12_191" x="-10" y="-9.42969" width="666" height="222" filterUnits="userSpaceOnUse" color-interpolation-filters="sRGB">
<feFlood flood-opacity="0" result="BackgroundImageFix"/>
<feGaussianBlur in="BackgroundImageFix" stdDeviation="5"/>
<feComposite in2="SourceAlpha" operator="in" result="effect1_backgroundBlur_12_191"/>
<feBlend mode="normal" in="SourceGraphic" in2="effect1_backgroundBlur_12_191" result="shape"/>
</filter>
</defs>
</svg>
