<svg width="1440" height="1360" viewBox="0 0 1440 1360" fill="none" xmlns="http://www.w3.org/2000/svg">
<g filter="url(#filter0_f_1_417)">
<path d="M-102.225 314.966C-219.139 -108.692 213.953 -151.816 526.503 -23.8927C708.861 41.8964 828.618 -162.703 1054.52 -81.0498C1280.43 0.603104 1009.62 257.81 1355.28 389.815C1700.94 521.821 1532.19 1112.44 1230.08 1119.25C927.963 1126.05 1010.98 1225.4 708.861 1452.66C406.745 1679.93 -102.225 1364.21 24.3372 1030.79C150.899 697.374 24.3358 773.584 -102.225 314.966Z" stroke="white" stroke-width="0.5"/>
<path d="M547.997 644.677C534.507 604.326 597.691 539.229 648.497 567.01C695.021 592.45 742.398 575.293 773.698 586.634C856.1 616.492 825.79 632.297 862.625 667.758C907.449 710.909 928.838 823.903 825.79 823.903C741.037 823.903 766.396 865.067 702.932 883.306C639.468 901.545 567.496 870.498 567.496 788.759C567.496 758.064 570.464 711.883 547.997 644.677Z" stroke="white" stroke-width="0.5"/>
<path d="M-43.1211 342.881C-150.633 -45.9314 248.832 -91.0523 537.586 27.7668C707.596 89.8877 820.773 -97.6712 1028.99 -22.4102C1241.85 54.534 992.898 289.795 1310.49 413.024C1628.8 536.952 1477.34 1084.15 1193.32 1090.34C910.962 1096.52 988.735 1190.58 708.315 1398.84C427.895 1607.11 -41.3478 1317.26 73.7085 1006.73C188.765 700.832 73.977 765.916 -43.1211 342.881Z" stroke="white" stroke-width="0.5"/>
<path d="M15.9804 370.799C-82.129 16.8322 283.707 -30.2863 548.667 79.429C706.328 137.882 812.925 -32.6369 1003.45 36.2321C1203.26 108.468 976.177 321.783 1265.69 436.235C1556.66 552.085 1422.48 1055.87 1156.55 1061.43C893.96 1067 966.491 1155.77 707.766 1345.03C449.042 1534.29 19.5263 1270.33 123.077 982.669C226.628 704.294 123.615 758.25 15.9804 370.799Z" stroke="white" stroke-width="0.5"/>
<path d="M75.0822 398.717C-13.625 79.5973 318.583 30.4813 559.748 131.093C705.061 185.877 805.078 32.3989 977.91 94.8759C1164.68 162.403 959.456 353.773 1220.89 459.448C1484.51 567.22 1367.62 1027.58 1119.79 1032.53C876.957 1037.48 944.247 1120.95 707.218 1291.21C470.189 1461.47 80.4007 1223.39 172.446 958.612C264.491 707.756 173.254 750.586 75.0822 398.717Z" stroke="white" stroke-width="0.5"/>
<path d="M134.185 426.637C54.8795 142.363 353.46 91.2493 570.83 182.757C703.794 233.874 797.231 97.4352 952.371 153.52C1126.09 216.339 942.736 385.763 1176.1 482.661C1412.37 582.356 1312.76 999.295 1083.03 1003.63C859.955 1007.96 922.003 1086.14 706.67 1237.4C491.337 1388.66 141.276 1176.45 221.815 934.555C302.354 711.219 222.893 742.923 134.185 426.637Z" stroke="white" stroke-width="0.5"/>
<path d="M193.297 455.972C123.394 206.544 388.346 153.433 581.921 235.837C702.537 283.285 789.394 163.887 926.843 213.58C1087.52 271.69 926.025 419.168 1131.31 507.29C1340.23 598.907 1257.91 972.425 1046.28 976.137C842.963 979.848 899.77 1052.75 706.132 1185C512.495 1317.26 202.16 1130.93 271.194 911.913C340.228 716.097 272.543 736.675 193.297 455.972Z" stroke="white" stroke-width="0.5"/>
<path d="M252.401 486.98C191.9 272.399 423.224 217.29 593.005 290.59C701.271 334.37 781.548 232.012 901.306 275.313C1048.94 328.715 909.307 454.247 1086.52 533.592C1268.09 617.132 1203.05 947.23 1009.52 950.322C825.962 953.415 877.528 1021.02 705.586 1134.28C533.644 1247.53 263.037 1087.08 320.565 890.945C378.093 722.65 322.183 732.101 252.401 486.98Z" stroke="white" stroke-width="0.5"/>
<path d="M311.506 518.081C260.408 338.346 458.104 281.24 604.089 345.436C700.008 385.548 773.704 300.23 875.771 337.139C1010.36 385.832 892.589 489.419 1041.73 559.987C1195.95 635.449 1148.19 922.126 972.757 924.6C808.964 927.075 855.288 989.395 705.042 1083.64C554.795 1177.89 323.915 1043.33 369.938 870.07C415.96 729.294 371.826 727.619 311.506 518.081Z" stroke="white" stroke-width="0.5"/>
<path d="M370.617 549.316C328.921 404.426 492.989 345.322 615.179 400.415C698.749 436.859 765.866 368.581 850.241 399.098C971.78 443.082 875.878 524.724 996.939 586.515C1123.81 653.899 1093.34 897.156 936.004 899.011C791.97 900.867 833.053 957.898 704.502 1033.15C575.952 1108.39 384.799 999.706 419.315 849.328C453.832 736.072 421.474 723.27 370.617 549.316Z" stroke="white" stroke-width="0.5"/>
<path d="M429.729 580.748C397.435 470.705 527.875 409.604 626.271 455.592C697.492 488.369 758.029 437.131 824.712 461.256C933.205 500.531 859.167 560.227 952.153 613.242C1051.68 672.548 1038.49 872.384 899.251 873.621C774.978 874.858 810.819 926.6 703.964 982.844C597.109 1039.09 445.683 956.282 468.694 828.784C491.706 743.048 471.123 719.12 429.729 580.748Z" stroke="white" stroke-width="0.5"/>
<path d="M488.853 612.48C465.961 537.283 562.773 474.184 637.374 511.069C696.247 540.177 750.203 505.98 799.195 523.713C894.642 558.279 842.468 596.03 907.379 640.267C979.552 691.496 983.656 847.911 862.51 848.53C757.997 849.148 788.597 895.601 703.438 932.843C618.279 970.085 506.58 913.158 518.085 808.539C529.591 750.324 520.783 715.269 488.853 612.48Z" stroke="white" stroke-width="0.5"/>
</g>
<defs>
<filter id="filter0_f_1_417" x="-127.01" y="-105.86" width="1679.85" height="1640.86" filterUnits="userSpaceOnUse" color-interpolation-filters="sRGB">
<feFlood flood-opacity="0" result="BackgroundImageFix"/>
<feBlend mode="normal" in="SourceGraphic" in2="BackgroundImageFix" result="shape"/>
<feGaussianBlur stdDeviation="2.5" result="effect1_foregroundBlur_1_417"/>
</filter>
</defs>
</svg>
