<svg width="534" height="392" viewBox="0 0 534 392" fill="none" xmlns="http://www.w3.org/2000/svg">
<g opacity="0.75" filter="url(#filter0_f_1_448)">
<path d="M516.726 645.915C578.217 868.739 350.431 891.42 186.045 824.139C90.1336 789.537 27.1469 897.146 -91.6689 854.2C-210.485 811.255 -68.0492 675.977 -249.852 606.548C-431.654 537.119 -342.9 226.481 -184.002 222.902C-25.1033 219.323 -68.7645 167.073 90.1338 47.541C249.032 -71.9906 516.726 94.0655 450.16 269.426C383.595 444.787 450.161 404.704 516.726 645.915Z" stroke="url(#paint0_linear_1_448)" stroke-width="3"/>
<path d="M174.74 472.503C181.835 493.726 148.603 527.963 121.882 513.352C97.4123 499.971 72.4946 508.995 56.0322 503.03C12.6929 487.327 28.6346 479.014 9.26078 460.363C-14.3146 437.668 -25.5641 378.238 28.6346 378.238C73.2105 378.238 59.8729 356.588 93.2517 346.995C126.631 337.402 164.484 353.732 164.484 396.722C164.484 412.867 162.923 437.156 174.74 472.503Z" stroke="url(#paint1_linear_1_448)" stroke-width="3"/>
<path d="M485.641 631.233C542.187 835.73 332.088 859.461 180.217 796.968C90.7999 764.295 31.2741 862.942 -78.2369 823.359C-190.191 782.89 -59.2551 659.154 -226.291 594.341C-393.71 529.161 -314.047 241.36 -164.666 238.106C-16.161 234.853 -57.0656 185.384 90.4218 75.8471C237.909 -33.6901 484.708 118.754 424.194 282.081C363.68 442.968 424.053 408.737 485.641 631.233Z" stroke="url(#paint2_linear_1_448)" stroke-width="3"/>
<path d="M454.556 616.55C506.156 802.719 313.744 827.501 174.388 769.796C91.4661 739.053 35.4011 828.737 -64.8051 792.516C-169.898 754.523 -50.4613 642.33 -202.731 582.133C-355.765 521.202 -285.193 256.237 -145.331 253.309C-7.21898 250.381 -45.3668 203.694 90.7097 104.152C226.786 4.60893 452.691 143.442 398.228 294.735C343.765 441.148 397.945 412.769 454.556 616.55Z" stroke="url(#paint3_linear_1_448)" stroke-width="3"/>
<path d="M423.47 601.866C470.126 769.708 295.4 795.54 168.559 742.624C92.1321 713.809 39.5278 794.532 -51.3734 761.672C-149.605 726.156 -41.6676 625.505 -179.171 569.925C-317.821 513.241 -256.34 271.114 -125.997 268.512C1.72288 265.909 -33.6683 222.004 90.9975 132.456C215.663 42.9073 420.673 168.129 372.262 307.389C323.851 439.327 371.837 416.8 423.47 601.866Z" stroke="url(#paint4_linear_1_448)" stroke-width="3"/>
<path d="M392.385 587.182C434.095 736.696 277.056 763.579 162.73 715.451C92.7977 688.566 43.6543 760.326 -37.9421 730.828C-129.312 697.788 -32.8742 608.679 -155.612 557.715C-279.877 505.281 -227.488 285.991 -106.662 283.713C10.6645 281.436 -21.97 240.313 91.2848 160.759C204.54 81.2051 388.655 192.815 346.295 320.041C303.935 437.505 345.728 420.83 392.385 587.182Z" stroke="url(#paint5_linear_1_448)" stroke-width="3"/>
<path d="M361.296 571.753C398.061 702.94 258.709 730.874 156.898 687.534C93.4603 662.578 47.7777 725.376 -24.5139 699.24C-109.022 668.677 -24.0839 591.11 -132.055 544.762C-241.936 496.576 -198.638 300.123 -87.3307 298.171C19.6029 296.219 -10.2749 257.878 91.5691 188.319C193.413 118.759 356.634 216.757 320.326 331.95C284.017 434.94 319.616 424.117 361.296 571.753Z" stroke="url(#paint6_linear_1_448)" stroke-width="3"/>
<path d="M330.209 555.444C362.03 668.304 240.365 697.288 151.068 658.736C94.1251 635.709 51.9033 689.545 -11.0834 666.77C-88.7303 638.684 -15.2913 572.66 -108.496 530.928C-203.993 486.99 -169.786 313.375 -67.997 311.748C28.5437 310.121 1.42258 274.562 91.8557 214.997C182.289 155.432 324.615 239.819 294.358 342.978C264.101 431.493 293.507 426.522 330.209 555.444Z" stroke="url(#paint7_linear_1_448)" stroke-width="3"/>
<path d="M299.122 539.086C325.998 633.619 222.019 663.654 145.238 629.89C94.7892 608.793 56.0282 653.666 2.34634 634.253C-68.439 608.643 -6.4995 554.162 -84.9383 517.046C-166.051 477.357 -140.935 326.578 -48.664 325.277C37.4836 323.976 13.1193 291.198 92.1415 241.628C171.164 192.057 292.596 262.832 268.39 353.958C244.184 427.999 267.397 428.88 299.122 539.086Z" stroke="url(#paint8_linear_1_448)" stroke-width="3"/>
<path d="M268.034 522.659C289.964 598.864 203.672 629.949 139.406 600.973C95.452 581.805 60.1519 617.716 15.7749 601.666C-48.149 578.532 2.29105 535.593 -61.3815 503.094C-128.11 467.653 -112.085 339.712 -29.3323 338.736C46.4224 337.76 24.8147 307.764 92.4261 268.188C160.038 228.611 260.575 285.775 242.421 364.867C224.267 424.434 241.286 431.167 268.034 522.659Z" stroke="url(#paint9_linear_1_448)" stroke-width="3"/>
<path d="M236.943 506.126C253.928 564.004 185.323 596.14 133.572 571.952C96.1126 554.714 64.2733 581.662 29.2011 568.974C-27.8612 548.317 11.0794 516.92 -37.8269 489.037C-90.1708 457.844 -83.2379 352.74 -10.0029 352.09C55.3589 351.439 36.5079 324.225 92.7085 294.643C148.909 265.062 228.552 308.614 216.449 375.672C204.346 420.765 215.172 433.35 236.943 506.126Z" stroke="url(#paint10_linear_1_448)" stroke-width="3"/>
<path d="M205.848 489.437C217.888 528.987 166.969 562.174 127.733 542.774C96.7685 527.465 68.39 545.451 42.6227 536.124C-7.57812 517.944 19.863 498.089 -14.277 474.822C-52.2366 447.878 -54.3949 365.611 9.32192 365.286C64.2908 364.961 48.1965 340.529 92.9862 320.941C137.776 301.354 196.524 331.295 190.473 386.319C184.421 416.938 189.054 435.375 205.848 489.437Z" stroke="url(#paint11_linear_1_448)" stroke-width="3"/>
</g>
<defs>
<filter id="filter0_f_1_448" x="-357.494" y="0.498779" width="890.994" height="870.489" filterUnits="userSpaceOnUse" color-interpolation-filters="sRGB">
<feFlood flood-opacity="0" result="BackgroundImageFix"/>
<feBlend mode="normal" in="SourceGraphic" in2="BackgroundImageFix" result="shape"/>
<feGaussianBlur stdDeviation="2.5" result="effect1_foregroundBlur_1_448"/>
</filter>
<linearGradient id="paint0_linear_1_448" x1="527" y1="6.99927" x2="990.496" y2="1426.15" gradientUnits="userSpaceOnUse">
<stop stop-color="#149EE3"/>
<stop offset="1" stop-color="#5DFDB0"/>
</linearGradient>
<linearGradient id="paint1_linear_1_448" x1="175.711" y1="344.338" x2="265.129" y2="632.608" gradientUnits="userSpaceOnUse">
<stop stop-color="#149EE3"/>
<stop offset="1" stop-color="#5DFDB0"/>
</linearGradient>
<linearGradient id="paint2_linear_1_448" x1="495.065" y1="38.7681" x2="923.495" y2="1353.64" gradientUnits="userSpaceOnUse">
<stop stop-color="#149EE3"/>
<stop offset="1" stop-color="#5DFDB0"/>
</linearGradient>
<linearGradient id="paint3_linear_1_448" x1="463.13" y1="70.5349" x2="856.497" y2="1281.12" gradientUnits="userSpaceOnUse">
<stop stop-color="#149EE3"/>
<stop offset="1" stop-color="#5DFDB0"/>
</linearGradient>
<linearGradient id="paint4_linear_1_448" x1="431.195" y1="102.3" x2="789.502" y2="1208.6" gradientUnits="userSpaceOnUse">
<stop stop-color="#149EE3"/>
<stop offset="1" stop-color="#5DFDB0"/>
</linearGradient>
<linearGradient id="paint5_linear_1_448" x1="399.26" y1="134.064" x2="722.513" y2="1136.07" gradientUnits="userSpaceOnUse">
<stop stop-color="#149EE3"/>
<stop offset="1" stop-color="#5DFDB0"/>
</linearGradient>
<linearGradient id="paint6_linear_1_448" x1="367.322" y1="165.083" x2="656.246" y2="1063.79" gradientUnits="userSpaceOnUse">
<stop stop-color="#149EE3"/>
<stop offset="1" stop-color="#5DFDB0"/>
</linearGradient>
<linearGradient id="paint7_linear_1_448" x1="335.387" y1="195.219" x2="590.834" y2="991.825" gradientUnits="userSpaceOnUse">
<stop stop-color="#149EE3"/>
<stop offset="1" stop-color="#5DFDB0"/>
</linearGradient>
<linearGradient id="paint8_linear_1_448" x1="303.451" y1="225.304" x2="525.469" y2="919.876" gradientUnits="userSpaceOnUse">
<stop stop-color="#149EE3"/>
<stop offset="1" stop-color="#5DFDB0"/>
</linearGradient>
<linearGradient id="paint9_linear_1_448" x1="271.516" y1="255.314" x2="460.171" y2="847.956" gradientUnits="userSpaceOnUse">
<stop stop-color="#149EE3"/>
<stop offset="1" stop-color="#5DFDB0"/>
</linearGradient>
<linearGradient id="paint10_linear_1_448" x1="239.581" y1="285.21" x2="394.973" y2="776.08" gradientUnits="userSpaceOnUse">
<stop stop-color="#149EE3"/>
<stop offset="1" stop-color="#5DFDB0"/>
</linearGradient>
<linearGradient id="paint11_linear_1_448" x1="207.646" y1="314.927" x2="329.925" y2="704.276" gradientUnits="userSpaceOnUse">
<stop stop-color="#149EE3"/>
<stop offset="1" stop-color="#5DFDB0"/>
</linearGradient>
</defs>
</svg>
