<svg width="763" height="686" viewBox="0 0 763 686" fill="none" xmlns="http://www.w3.org/2000/svg">
<g opacity="0.75" filter="url(#filter0_f_1_435)">
<path d="M17.2742 40.5732C-44.2169 -182.251 183.569 -204.932 347.955 -137.65C443.866 -103.048 506.853 -210.658 625.669 -167.712C744.485 -124.767 602.049 10.5117 783.852 79.9402C965.654 149.369 876.9 460.008 718.002 463.586C559.103 467.165 602.765 519.416 443.866 638.947C284.968 758.479 17.2745 592.423 83.84 417.062C150.405 241.701 83.8392 281.784 17.2742 40.5732Z" stroke="url(#paint0_linear_1_435)" stroke-width="3"/>
<path d="M359.26 213.985C352.165 192.763 385.397 158.525 412.118 173.137C436.588 186.517 461.505 177.493 477.968 183.458C521.307 199.162 505.365 207.474 524.739 226.125C548.315 248.82 559.564 308.25 505.365 308.25C460.79 308.25 474.127 329.9 440.748 339.493C407.369 349.086 369.516 332.757 369.516 289.766C369.516 273.622 371.077 249.333 359.26 213.985Z" stroke="url(#paint1_linear_1_435)" stroke-width="3"/>
<path d="M48.3592 55.2551C-8.18675 -149.241 201.912 -172.973 353.783 -110.48C443.2 -77.8072 502.726 -176.454 612.237 -136.87C724.191 -96.4015 593.255 27.3345 760.291 92.1469C927.71 157.327 848.047 445.129 698.666 448.382C550.161 451.635 591.066 501.104 443.578 610.641C296.091 720.178 49.2919 567.734 109.806 404.407C170.32 243.52 109.947 277.751 48.3592 55.2551Z" stroke="url(#paint2_linear_1_435)" stroke-width="3"/>
<path d="M79.4444 69.9383C27.8435 -116.231 220.256 -141.013 359.612 -83.308C442.534 -52.5646 498.599 -142.249 598.805 -106.028C703.898 -68.0351 584.461 44.1586 736.731 104.355C889.765 165.286 819.193 430.251 679.331 433.179C541.219 436.107 579.367 482.794 443.29 582.337C307.214 681.879 81.3093 543.046 135.772 391.753C190.235 245.341 136.055 273.719 79.4444 69.9383Z" stroke="url(#paint3_linear_1_435)" stroke-width="3"/>
<path d="M110.53 84.6223C63.874 -83.2195 238.6 -109.052 365.441 -56.1354C441.868 -27.3213 494.472 -108.044 585.373 -75.1837C683.605 -39.6678 575.668 60.9835 713.171 116.564C851.821 173.247 790.34 415.374 659.997 417.977C532.277 420.579 567.668 464.484 443.003 554.033C318.337 643.581 113.327 518.36 161.738 379.1C210.149 247.162 162.163 269.688 110.53 84.6223Z" stroke="url(#paint4_linear_1_435)" stroke-width="3"/>
<path d="M141.615 99.3067C99.9047 -50.2077 256.944 -77.091 371.27 -28.9624C441.202 -2.07749 490.346 -73.8376 571.942 -44.3395C663.312 -11.3001 566.874 77.8089 689.612 128.773C813.877 181.207 761.488 400.497 640.662 402.775C523.336 405.052 555.97 446.175 442.715 525.729C329.46 605.283 145.345 493.673 187.705 366.447C230.065 248.983 188.272 265.658 141.615 99.3067Z" stroke="url(#paint5_linear_1_435)" stroke-width="3"/>
<path d="M172.704 114.735C135.939 -16.452 275.291 -44.3859 377.102 -1.04541C440.54 23.9102 486.222 -38.8876 558.514 -12.7514C643.022 17.8115 558.084 95.3781 666.055 141.726C775.936 189.912 732.638 386.365 621.331 388.317C514.397 390.269 544.275 428.61 442.431 498.17C340.587 567.729 177.366 469.731 213.674 354.538C249.983 251.549 214.384 262.371 172.704 114.735Z" stroke="url(#paint6_linear_1_435)" stroke-width="3"/>
<path d="M203.791 131.044C171.97 18.1847 293.635 -10.7998 382.932 27.7525C439.875 50.7789 482.097 -3.05656 545.083 19.7178C622.73 47.8042 549.291 113.828 642.496 155.56C737.993 199.498 703.786 373.113 601.997 374.74C505.456 376.367 532.577 411.926 442.144 471.491C351.711 531.056 209.385 446.669 239.642 343.51C269.899 254.995 240.493 259.966 203.791 131.044Z" stroke="url(#paint7_linear_1_435)" stroke-width="3"/>
<path d="M234.878 147.402C208.003 52.8695 311.981 22.8343 388.762 56.5985C439.211 77.6956 477.972 32.8224 531.654 52.2349C602.439 77.8448 540.5 132.327 618.938 169.442C700.051 209.131 674.935 359.91 582.664 361.211C496.516 362.512 520.881 395.29 441.859 444.861C362.836 494.431 241.404 423.656 265.61 332.531C289.816 258.49 266.603 257.608 234.878 147.402Z" stroke="url(#paint8_linear_1_435)" stroke-width="3"/>
<path d="M265.966 163.83C244.036 87.6246 330.328 56.5389 394.594 85.5149C438.548 104.683 473.848 68.7719 518.225 84.8225C582.149 107.956 531.709 150.895 595.382 183.395C662.11 218.835 646.086 346.777 563.332 347.753C487.578 348.729 509.185 378.724 441.574 418.301C373.963 457.877 273.425 400.713 291.579 321.621C309.734 262.054 292.714 255.321 265.966 163.83Z" stroke="url(#paint9_linear_1_435)" stroke-width="3"/>
<path d="M297.057 180.362C280.072 122.484 348.677 90.3478 400.428 114.536C437.887 131.774 469.727 104.826 504.799 117.515C561.861 138.171 522.921 169.568 571.827 197.452C624.171 228.644 617.238 333.748 544.003 334.399C478.641 335.049 497.492 362.263 441.292 391.845C385.091 421.427 305.448 377.874 317.551 310.816C329.654 265.724 318.828 253.139 297.057 180.362Z" stroke="url(#paint10_linear_1_435)" stroke-width="3"/>
<path d="M328.152 197.052C316.112 157.501 367.031 124.314 406.267 143.714C437.231 159.024 465.61 141.037 491.377 150.364C541.578 168.544 514.137 188.399 548.277 211.666C586.237 238.61 588.395 320.877 524.678 321.202C469.709 321.527 485.804 345.959 441.014 365.547C396.224 385.134 337.476 355.194 343.527 300.169C349.579 269.551 344.946 251.113 328.152 197.052Z" stroke="url(#paint11_linear_1_435)" stroke-width="3"/>
</g>
<defs>
<filter id="filter0_f_1_435" x="0.500099" y="-184.5" width="890.994" height="870.489" filterUnits="userSpaceOnUse" color-interpolation-filters="sRGB">
<feFlood flood-opacity="0" result="BackgroundImageFix"/>
<feBlend mode="normal" in="SourceGraphic" in2="BackgroundImageFix" result="shape"/>
<feGaussianBlur stdDeviation="2.5" result="effect1_foregroundBlur_1_435"/>
</filter>
<linearGradient id="paint0_linear_1_435" x1="6.99993" y1="679.489" x2="-456.496" y2="-739.664" gradientUnits="userSpaceOnUse">
<stop stop-color="#149EE3"/>
<stop offset="1" stop-color="#5DFDB0"/>
</linearGradient>
<linearGradient id="paint1_linear_1_435" x1="358.289" y1="342.151" x2="268.871" y2="53.8806" gradientUnits="userSpaceOnUse">
<stop stop-color="#149EE3"/>
<stop offset="1" stop-color="#5DFDB0"/>
</linearGradient>
<linearGradient id="paint2_linear_1_435" x1="38.935" y1="647.72" x2="-389.495" y2="-667.149" gradientUnits="userSpaceOnUse">
<stop stop-color="#149EE3"/>
<stop offset="1" stop-color="#5DFDB0"/>
</linearGradient>
<linearGradient id="paint3_linear_1_435" x1="70.8702" y1="615.953" x2="-322.497" y2="-594.63" gradientUnits="userSpaceOnUse">
<stop stop-color="#149EE3"/>
<stop offset="1" stop-color="#5DFDB0"/>
</linearGradient>
<linearGradient id="paint4_linear_1_435" x1="102.805" y1="584.188" x2="-255.502" y2="-522.107" gradientUnits="userSpaceOnUse">
<stop stop-color="#149EE3"/>
<stop offset="1" stop-color="#5DFDB0"/>
</linearGradient>
<linearGradient id="paint5_linear_1_435" x1="134.74" y1="552.424" x2="-188.513" y2="-449.58" gradientUnits="userSpaceOnUse">
<stop stop-color="#149EE3"/>
<stop offset="1" stop-color="#5DFDB0"/>
</linearGradient>
<linearGradient id="paint6_linear_1_435" x1="166.678" y1="521.405" x2="-122.246" y2="-377.306" gradientUnits="userSpaceOnUse">
<stop stop-color="#149EE3"/>
<stop offset="1" stop-color="#5DFDB0"/>
</linearGradient>
<linearGradient id="paint7_linear_1_435" x1="198.613" y1="491.269" x2="-56.8338" y2="-305.337" gradientUnits="userSpaceOnUse">
<stop stop-color="#149EE3"/>
<stop offset="1" stop-color="#5DFDB0"/>
</linearGradient>
<linearGradient id="paint8_linear_1_435" x1="230.549" y1="461.184" x2="8.53115" y2="-233.388" gradientUnits="userSpaceOnUse">
<stop stop-color="#149EE3"/>
<stop offset="1" stop-color="#5DFDB0"/>
</linearGradient>
<linearGradient id="paint9_linear_1_435" x1="262.484" y1="431.175" x2="73.8288" y2="-161.468" gradientUnits="userSpaceOnUse">
<stop stop-color="#149EE3"/>
<stop offset="1" stop-color="#5DFDB0"/>
</linearGradient>
<linearGradient id="paint10_linear_1_435" x1="294.419" y1="401.279" x2="139.028" y2="-89.5913" gradientUnits="userSpaceOnUse">
<stop stop-color="#149EE3"/>
<stop offset="1" stop-color="#5DFDB0"/>
</linearGradient>
<linearGradient id="paint11_linear_1_435" x1="326.354" y1="371.561" x2="204.075" y2="-17.7876" gradientUnits="userSpaceOnUse">
<stop stop-color="#149EE3"/>
<stop offset="1" stop-color="#5DFDB0"/>
</linearGradient>
</defs>
</svg>
